<?xml version="1.0" encoding="UTF-8"?>
<svg xmlns="http://www.w3.org/2000/svg" xmlns:xlink="http://www.w3.org/1999/xlink" width="216.717" height="255.61"
     viewBox="0 0 216.717 255.61">
    <defs>
        <clipPath id="clip-0">
            <path clip-rule="nonzero" d="M 0 0 L 216.71875 0 L 216.71875 255.609375 L 0 255.609375 Z M 0 0 "/>
        </clipPath>
    </defs>
    <g clip-path="url(#clip-0)">
        <path fill-rule="nonzero" fill="rgb(0%, 0%, 0%)" fill-opacity="1"
              d="M 208.953125 21.214844 C 203.402344 26.761719 195.867188 28.265625 192.15625 24.554688 C 188.449219 20.847656 189.949219 13.3125 195.5 7.761719 C 198.988281 4.273438 203.261719 2.382812 206.878906 2.382812 C 209.011719 2.382812 210.917969 3.042969 212.292969 4.421875 C 216.003906 8.128906 214.503906 15.664062 208.953125 21.214844 M 214.011719 2.707031 C 209.355469 -1.949219 200.28125 -0.449219 193.785156 6.046875 C 187.738281 12.09375 186.027344 20.367188 189.570312 25.238281 L 172.847656 41.757812 L 172.21875 41.238281 L 164.304688 48.074219 C 163.375 47.570312 162.386719 47.257812 161.515625 47.332031 C 158.875 47.550781 157.558594 50.851562 151.621094 52.390625 C 145.683594 53.929688 131.613281 56.128906 125.015625 59.867188 C 118.417969 63.601562 112.921875 62.722656 109.1875 62.945312 C 105.449219 63.164062 99.070312 63.164062 99.949219 61.40625 C 100.828125 59.644531 104.128906 56.566406 103.25 53.269531 C 102.839844 51.738281 102.980469 49.777344 102.554688 48.410156 C 102.0625 46.839844 101.085938 45.875 102.148438 44.253906 C 103.523438 42.15625 99.730469 40.707031 99.511719 39.511719 C 99.378906 38.792969 98.574219 36.3125 96.730469 34.296875 L 96.75 34.292969 C 96.75 34.292969 96.71875 34.265625 96.660156 34.210938 C 96.21875 33.738281 95.726562 33.289062 95.160156 32.902344 C 92.910156 31 88.941406 27.90625 87.65625 28.613281 C 86.894531 29.035156 87.351562 30.164062 88.132812 31.332031 C 85.855469 30.371094 83.476562 29.621094 82.742188 30.296875 C 82.242188 30.753906 82.558594 31.449219 83.207031 32.179688 C 83.167969 32.195312 83.132812 32.210938 83.09375 32.222656 C 80.835938 32.125 78.6875 32.261719 78.257812 33.078125 C 78.007812 33.554688 78.296875 34 78.859375 34.40625 C 78.152344 34.921875 77.453125 35.484375 76.785156 36.15625 C 72.605469 40.332031 72.027344 46.011719 73.785156 51.289062 C 75.542969 56.566406 81.042969 61.625 76.863281 65.582031 C 72.6875 69.539062 61.691406 81.414062 61.03125 88.449219 C 60.375 95.484375 59.273438 103.839844 56.195312 108.675781 C 53.117188 113.515625 49.820312 128.683594 49.601562 135.941406 C 49.601562 135.941406 49.160156 142.539062 46.082031 145.175781 C 46.082031 145.175781 43.964844 147.21875 42.472656 149.777344 C 40.980469 152.332031 41.40625 155.101562 41.832031 156.167969 C 42.257812 157.234375 44.921875 158.40625 44.921875 158.40625 C 44.921875 158.40625 46.09375 162.988281 47.691406 163.203125 C 49.292969 163.414062 47.375 160.21875 47.800781 158.300781 C 47.800781 158.300781 49.929688 163.628906 51.421875 163.09375 C 52.914062 162.5625 49.929688 158.511719 50.464844 156.808594 L 51.210938 155.957031 C 51.210938 155.957031 52.796875 161.347656 56.511719 167.097656 C 60.21875 172.847656 61.890625 187.507812 61.703125 193.074219 C 61.519531 198.636719 63.929688 202.347656 57.992188 202.535156 C 52.058594 202.71875 43.707031 206.429688 37.585938 210.511719 C 31.460938 214.59375 21.074219 218.675781 16.621094 218.304688 C 12.167969 217.933594 1.46875 218.121094 0.507812 220.160156 C -0.449219 222.199219 -0.261719 227.210938 2.890625 232.589844 C 6.042969 237.972656 0.144531 241.425781 11.628906 250.828125 C 14.269531 252.992188 13.335938 242.292969 16.410156 238.878906 C 19.480469 235.464844 18.796875 228.636719 28.019531 226.246094 C 37.238281 223.855469 66.601562 218.734375 72.746094 216.683594 C 78.894531 214.636719 83.671875 209.515625 84.355469 199.613281 C 85.039062 189.710938 89.480469 184.589844 89.480469 179.125 C 89.480469 179.125 96.992188 183.222656 100.40625 184.929688 C 103.820312 186.636719 109.28125 181.515625 109.28125 181.515625 C 109.28125 181.515625 122.941406 183.90625 123.964844 187.660156 C 124.988281 191.417969 122.257812 199.269531 126.355469 207.808594 C 130.453125 216.34375 134.550781 229.660156 133.527344 238.878906 C 133.527344 238.878906 129.085938 245.367188 129.085938 250.828125 C 129.085938 256.292969 137.621094 253.21875 145.816406 254.585938 C 154.011719 255.953125 166.988281 255.953125 170.742188 254.585938 C 174.5 253.21875 171.085938 248.097656 160.5 246.050781 C 149.914062 244 145.476562 233.414062 144.792969 226.246094 C 144.109375 219.074219 140.355469 188.34375 141.378906 182.199219 C 142.402344 176.050781 140.355469 170.929688 131.816406 166.152344 C 123.28125 161.371094 95.964844 143.613281 95.964844 143.613281 C 95.964844 143.613281 97.332031 128.25 98.355469 122.445312 C 99.378906 116.640625 106.210938 97.859375 106.894531 90.691406 C 107.574219 83.519531 107.574219 81.128906 114.0625 78.738281 C 114.0625 78.738281 119.519531 73.9375 124.796875 74.15625 C 130.074219 74.375 136.449219 71.738281 141.066406 68.21875 C 145.050781 65.183594 150.988281 60.363281 154.242188 59.65625 L 156.246094 61.300781 L 157.535156 60.1875 C 158.808594 60.410156 160.449219 60.445312 161.734375 59.558594 C 164.152344 57.886719 167.453125 55.027344 167.671875 52.609375 C 167.703125 52.265625 167.636719 51.910156 167.523438 51.550781 L 175.914062 44.292969 L 174.726562 43.3125 L 191.289062 26.949219 C 193.015625 28.289062 195.171875 28.976562 197.546875 28.976562 C 201.824219 28.976562 206.722656 26.875 210.667969 22.929688 C 217.167969 16.433594 218.664062 7.359375 214.011719 2.707031 "/>
    </g>
</svg>
