<?xml version="1.0" encoding="UTF-8"?>
<svg xmlns="http://www.w3.org/2000/svg" xmlns:xlink="http://www.w3.org/1999/xlink" width="184.122" height="180.749" viewBox="0 0 184.122 180.749">
<defs>
<clipPath id="clip-0">
<path clip-rule="nonzero" d="M 0 0 L 184.121094 0 L 184.121094 180.75 L 0 180.75 Z M 0 0 "/>
</clipPath>
</defs>
<g clip-path="url(#clip-0)">
<path fill-rule="nonzero" fill="rgb(0%, 0%, 0%)" fill-opacity="1" d="M 57.714844 68.257812 C 56.054688 68.667969 54.828125 70.160156 54.828125 71.9375 C 54.828125 74.03125 56.535156 75.730469 58.644531 75.730469 C 60.753906 75.730469 62.460938 74.03125 62.460938 71.9375 C 62.460938 70.625 61.792969 69.472656 60.777344 68.789062 C 60.523438 68.621094 60.25 68.480469 59.957031 68.375 L 59.929688 68.320312 C 59.929688 68.320312 59.925781 68.320312 59.925781 68.320312 C 59.902344 68.332031 59.9375 68.34375 59.957031 68.375 C 59.546875 68.226562 59.105469 68.144531 58.644531 68.144531 C 58.324219 68.144531 58.011719 68.183594 57.714844 68.257812 M 34.738281 32.308594 C 34.882812 32.105469 34.984375 31.875 35.0625 31.628906 C 35.023438 31.710938 34.992188 31.796875 34.949219 31.878906 C 34.875 32.027344 34.804688 32.171875 34.738281 32.308594 M 33.019531 26.847656 C 33.019531 26.847656 33.019531 26.847656 33.019531 26.851562 C 33.019531 26.847656 33.019531 26.847656 33.019531 26.847656 M 53.648438 45.609375 C 53.703125 45.527344 53.4375 45.554688 53.027344 45.664062 C 53.234375 45.632812 53.441406 45.613281 53.648438 45.609375 M 183.933594 160.140625 C 182.953125 164.011719 180.054688 166.5 176.175781 165 C 174.589844 164.390625 172.679688 163.457031 172.089844 161.738281 C 171.246094 159.273438 172.246094 156.269531 171.882812 153.71875 C 171.605469 151.761719 169.660156 150.59375 169.160156 148.707031 C 168.964844 147.96875 169.113281 147.707031 169.375 146.984375 C 169.574219 146.4375 169.78125 145.863281 169.957031 145.273438 C 169.21875 143.996094 168.613281 142.765625 168.21875 142.253906 C 166.019531 139.386719 162.816406 137.117188 159.671875 135.371094 C 156.089844 133.378906 151.796875 132.230469 148.65625 129.640625 C 148.242188 129.304688 147.820312 128.976562 147.390625 128.65625 C 147.253906 128.554688 147.109375 128.457031 146.964844 128.355469 C 146.671875 128.144531 146.378906 127.933594 146.078125 127.730469 C 145.90625 127.613281 145.726562 127.5 145.550781 127.386719 C 145.273438 127.207031 145 127.027344 144.71875 126.855469 C 144.53125 126.738281 144.339844 126.625 144.148438 126.507812 C 143.871094 126.34375 143.597656 126.179688 143.320312 126.019531 C 143.179688 125.941406 143.035156 125.863281 142.894531 125.78125 C 142.394531 125.5 141.886719 125.226562 141.371094 124.953125 C 141.242188 124.886719 141.113281 124.816406 140.980469 124.746094 C 140.375 124.433594 139.761719 124.125 139.144531 123.820312 C 139.015625 123.757812 138.882812 123.695312 138.753906 123.632812 C 138.226562 123.375 137.691406 123.121094 137.160156 122.867188 C 137.003906 122.792969 136.851562 122.722656 136.695312 122.648438 C 136.023438 122.332031 135.347656 122.019531 134.675781 121.703125 C 134.148438 121.460938 133.625 121.214844 133.101562 120.96875 C 132.914062 120.878906 132.726562 120.789062 132.539062 120.703125 C 131.90625 120.402344 131.277344 120.101562 130.652344 119.792969 C 130.589844 119.765625 130.53125 119.730469 130.46875 119.699219 C 129.914062 119.429688 129.367188 119.148438 128.824219 118.863281 C 128.660156 118.78125 128.5 118.695312 128.335938 118.609375 C 127.730469 118.285156 127.125 117.957031 126.535156 117.613281 C 123 115.574219 119.699219 113.175781 116.496094 110.636719 C 115.785156 111.402344 115.1875 112.261719 114.746094 113.246094 C 111.902344 111.273438 109.363281 108.683594 106.417969 106.839844 C 105.980469 107.378906 105.515625 107.914062 105.035156 108.445312 C 102.101562 111.6875 98.488281 114.707031 94.878906 117.253906 C 94.03125 117.855469 93.179688 118.429688 92.339844 118.972656 C 91.308594 118.195312 90.378906 117.292969 89.226562 116.824219 C 89.246094 116.542969 89.25 116.265625 89.257812 115.984375 C 88.828125 116.230469 88.398438 116.476562 87.984375 116.710938 C 83.433594 119.269531 79.417969 121.65625 74.628906 123.710938 C 71.261719 125.15625 67.820312 126.535156 64.550781 128.21875 C 60.605469 130.246094 56.414062 133.03125 53.582031 136.488281 C 52.070312 138.332031 51.542969 140.839844 50.457031 142.96875 C 47.0625 149.644531 40.039062 153.097656 35.144531 158.5625 C 33.976562 160.519531 32.410156 162.535156 31.25 164.503906 C 31.011719 164.933594 30.769531 165.359375 30.507812 165.773438 C 30.234375 166.214844 29.945312 166.636719 29.636719 167.027344 C 29.394531 167.386719 29.15625 167.742188 28.902344 168.113281 C 29.007812 167.96875 28.933594 168.105469 28.816406 168.316406 C 29 168.335938 29.179688 168.359375 29.355469 168.402344 C 29.359375 168.863281 29.367188 169.328125 29.367188 169.789062 C 29.644531 170.011719 29.820312 170.25 29.820312 170.480469 C 29.949219 170.566406 29.824219 170.761719 29.761719 171.339844 C 29.660156 172.320312 29.480469 173.296875 29.453125 174.289062 C 29.4375 174.800781 29.5 175.304688 29.609375 175.796875 C 29.644531 175.941406 29.679688 176.085938 29.722656 176.230469 C 29.8125 176.550781 30.160156 177.148438 30.070312 177.503906 C 29.914062 178.136719 28.589844 178.726562 28.078125 178.976562 C 26.21875 179.863281 23.613281 180.039062 21.601562 179.695312 C 20.808594 179.558594 20.335938 178.640625 19.484375 178.902344 C 18.542969 179.191406 18.089844 180.273438 17.0625 180.558594 C 15.9375 180.867188 14.621094 180.710938 13.472656 180.707031 C 11.710938 180.699219 9.9375 180.472656 8.179688 180.371094 C 6.46875 180.273438 4.976562 179.964844 3.464844 179.160156 C 2.425781 178.605469 1.234375 177.9375 0.242188 177.164062 C 0.0859375 177.039062 0.0078125 176.867188 0 176.695312 C -0.0117188 176.441406 0.132812 176.183594 0.402344 176.074219 C 0.40625 176.074219 0.410156 176.074219 0.410156 176.070312 C 0.679688 175.964844 0.941406 175.835938 1.203125 175.707031 C 1.464844 174.535156 1.78125 173.515625 2.699219 172.484375 C 3.996094 171.015625 5.363281 171.003906 7.214844 171.101562 C 8.84375 171.191406 10.585938 171.375 12.230469 171.1875 C 12.21875 171.183594 12.207031 171.179688 12.199219 171.175781 C 12.191406 171.113281 12.179688 171.054688 12.164062 170.996094 C 12.574219 170.476562 13.203125 170.527344 13.804688 170.859375 C 14.425781 170.660156 15.023438 170.382812 15.578125 169.980469 C 15.234375 169.898438 14.882812 169.867188 14.535156 169.921875 C 14.53125 169.910156 14.53125 169.894531 14.527344 169.882812 C 14.527344 169.882812 14.527344 169.878906 14.523438 169.875 C 14.527344 169.851562 14.527344 169.828125 14.527344 169.804688 C 14.78125 169.589844 15.160156 169.515625 15.476562 169.484375 C 15.667969 169.464844 15.890625 169.492188 16.113281 169.539062 C 16.425781 169.253906 16.671875 168.9375 16.894531 168.605469 C 16.597656 168.648438 16.304688 168.699219 16.015625 168.730469 C 15.78125 168.855469 15.820312 168.84375 15.84375 168.808594 C 15.8125 168.300781 16.605469 168.046875 17.296875 167.9375 C 17.453125 167.65625 17.601562 167.371094 17.757812 167.089844 C 17.527344 166.945312 17.351562 166.710938 17.316406 166.417969 C 17.199219 165.472656 17.09375 164.53125 16.789062 163.585938 C 16.429688 162.480469 15.886719 161.398438 15.945312 160.546875 C 15.988281 159.890625 16.390625 159.367188 17.503906 159.070312 C 19.460938 158.554688 22.339844 158.769531 24.464844 159.863281 C 24.648438 159.558594 24.820312 159.257812 24.960938 158.972656 C 26.128906 156.582031 27.285156 154.132812 28.273438 151.664062 C 29.773438 147.917969 31.109375 144.148438 32.714844 140.4375 C 34.488281 136.335938 36.78125 132.894531 39.238281 129.292969 C 39.496094 128.910156 39.757812 128.527344 40.023438 128.140625 C 41.660156 125.742188 41.367188 123.0625 43.625 121.054688 C 44.386719 120.378906 45.191406 119.882812 45.96875 119.390625 C 47.023438 118.726562 48.03125 118.058594 48.835938 116.941406 C 50.289062 114.929688 51.414062 112.683594 52.914062 110.675781 C 56.234375 106.234375 60.640625 102.589844 65.320312 99.601562 C 67.59375 98.148438 69.929688 96.820312 72.296875 95.566406 C 71.894531 95.640625 71.515625 95.789062 71.175781 96.023438 C 69.28125 91.6875 72.289062 84.636719 77.339844 85.96875 C 84.1875 87.769531 88.910156 87.082031 94.066406 82.660156 C 93.828125 81.964844 93.554688 81.253906 93.25 80.546875 C 92.011719 80.984375 90.816406 81.265625 89.707031 81.253906 C 89.101562 74.183594 83.625 75.039062 78.089844 73.421875 C 71.921875 71.613281 68.753906 70.699219 69.101562 63.523438 C 69.230469 60.875 69.710938 59.90625 68.089844 58.109375 C 65.328125 55.054688 61.164062 56.519531 57.632812 56.992188 C 57.640625 56.984375 57.644531 56.980469 57.648438 56.976562 C 57.554688 57.066406 57.460938 57.148438 57.382812 57.222656 C 55.585938 58.90625 53.558594 60.1875 51.480469 61.492188 C 46.136719 64.84375 40.554688 68.445312 34 68.066406 C 33.210938 68.019531 31.726562 68.234375 31.074219 67.734375 C 30.621094 67.386719 30.332031 65.90625 30.1875 65.4375 C 29.515625 63.261719 29.207031 60.933594 29.042969 58.667969 C 28.664062 53.402344 29.648438 48.644531 30.332031 43.484375 C 30.734375 40.457031 31.355469 37.335938 31.417969 34.257812 C 31.425781 33.839844 31.425781 33.421875 31.410156 33.007812 C 31.464844 33.015625 31.519531 33.027344 31.570312 33.039062 C 30.816406 32.59375 30.261719 31.992188 30.550781 31.042969 C 30.546875 31.0625 30.535156 31.074219 30.527344 31.09375 C 30.335938 30.898438 30.28125 30.46875 30.210938 30.21875 C 29.953125 29.285156 29.949219 28.101562 29.890625 27.136719 C 29.820312 26 29.898438 21.742188 31.550781 21.910156 C 31.492188 20.984375 31.746094 19.640625 32.960938 20.1875 C 32.667969 18.699219 33.9375 18.335938 34.746094 19.28125 C 34.164062 18.320312 33.75 17.167969 33.3125 16.160156 C 32.878906 15.167969 32.660156 14.125 33.121094 13.109375 C 33.394531 12.507812 33.632812 12.234375 33.929688 12.425781 C 34.429688 10.316406 35.375 8.289062 36.425781 6.40625 C 36.554688 6.171875 36.683594 5.9375 36.816406 5.707031 C 37.089844 5.238281 37.398438 4.753906 37.738281 4.277344 C 37.761719 4.242188 37.785156 4.207031 37.8125 4.171875 C 38.148438 3.703125 38.515625 3.242188 38.910156 2.804688 C 38.921875 2.792969 38.933594 2.777344 38.945312 2.761719 C 38.980469 2.722656 39.019531 2.6875 39.058594 2.648438 C 39.199219 2.496094 39.34375 2.351562 39.492188 2.207031 C 39.558594 2.144531 39.621094 2.082031 39.6875 2.019531 C 39.875 1.851562 40.0625 1.6875 40.257812 1.53125 C 40.28125 1.511719 40.308594 1.488281 40.332031 1.472656 C 40.546875 1.300781 40.773438 1.148438 41 1 C 41.070312 0.957031 41.140625 0.917969 41.207031 0.878906 C 41.382812 0.773438 41.558594 0.679688 41.734375 0.59375 C 41.8125 0.558594 41.882812 0.519531 41.960938 0.488281 C 42.195312 0.382812 42.433594 0.292969 42.675781 0.21875 C 42.691406 0.214844 42.703125 0.207031 42.714844 0.203125 C 42.972656 0.132812 43.234375 0.078125 43.5 0.0429688 C 43.578125 0.03125 43.65625 0.0273438 43.734375 0.0195312 C 43.933594 0.00390625 44.136719 -0.00390625 44.34375 0 C 44.425781 0.00390625 44.507812 0.00390625 44.589844 0.0117188 C 44.871094 0.03125 45.152344 0.0664062 45.441406 0.136719 C 45.441406 0.136719 45.441406 0.136719 45.445312 0.136719 C 45.648438 0.1875 45.847656 0.242188 46.042969 0.300781 C 53.691406 2.625 54.777344 12.851562 50.5625 18.722656 C 49.984375 19.527344 49.421875 20.480469 48.796875 21.410156 C 47.742188 22.984375 46.519531 24.476562 44.78125 25.011719 C 43.90625 25.28125 43.011719 25.15625 42.164062 24.863281 C 42.285156 25.65625 42.414062 26.261719 42.203125 27.09375 C 41.8125 28.605469 41.011719 30.238281 40.269531 31.621094 C 39.777344 32.535156 38.648438 33.3125 38.320312 34.292969 C 37.839844 35.730469 37.9375 38.8125 37.949219 40.269531 C 37.964844 42.390625 37.992188 43.640625 37.984375 45.765625 C 37.972656 48.699219 39.164062 51.417969 39.289062 54.289062 C 39.324219 54.246094 39.359375 54.207031 39.394531 54.167969 C 40.863281 52.539062 43.191406 51.515625 45.089844 50.515625 C 45.691406 50.199219 46.269531 49.878906 46.832031 49.542969 C 47.953125 48.875 49.007812 48.148438 50.046875 47.273438 C 50.125 47.210938 50.214844 47.132812 50.296875 47.058594 C 50.238281 46.382812 50.484375 45.746094 50.933594 45.152344 C 52.664062 42.867188 57.433594 41.289062 59.449219 41.152344 C 61.902344 40.988281 63.675781 40.917969 65.300781 40.472656 C 63.753906 39 61.933594 37.375 61.023438 35.464844 C 60.511719 34.398438 59.976562 33.367188 59.652344 32.222656 C 59.410156 31.355469 59.238281 30.46875 58.898438 29.632812 C 58.484375 28.597656 58.191406 27.875 58.195312 26.75 C 58.195312 26.480469 58.175781 26.214844 58.160156 25.949219 C 56.167969 24.554688 56.371094 21.808594 56.226562 19.550781 C 55.757812 19.773438 55.296875 20.023438 54.851562 20.292969 C 55.039062 19.125 55.960938 18.015625 56.078125 16.953125 C 55.847656 17.050781 55.605469 17.085938 55.359375 17.066406 C 55.15625 15.804688 56.523438 14.082031 57.660156 13.394531 C 57.269531 13.003906 56.335938 12.941406 55.964844 12.496094 C 55.035156 11.363281 56.074219 9.628906 57.015625 8.84375 C 57.890625 8.113281 59.125 8.078125 60.003906 7.414062 C 61.136719 6.554688 61.417969 5.566406 62.992188 5.101562 C 63.820312 4.855469 65.085938 4.828125 66.390625 4.996094 C 66.894531 4.515625 67.570312 4.140625 68.128906 3.984375 C 68.117188 2.734375 70.078125 2.761719 70.953125 2.535156 C 71.304688 2.484375 71.648438 2.507812 71.988281 2.605469 C 72.171875 2.46875 72.320312 2.292969 72.425781 2.082031 C 74.171875 1.398438 75.121094 0.300781 77.285156 0.214844 C 80.285156 0.09375 85.738281 2.738281 84.199219 6.5 C 83.964844 7.078125 83.324219 8.070312 82.6875 7.875 C 82.6875 7.925781 82.695312 7.972656 82.699219 8.019531 C 82.976562 8.359375 83.238281 8.71875 83.472656 9.113281 C 85.097656 11.890625 84.039062 14.371094 84.484375 17.207031 C 84.816406 19.347656 86.457031 21.109375 84.125 22.972656 C 87.292969 23.496094 82.789062 27.542969 82.078125 28.300781 C 81.429688 28.988281 81.496094 28.90625 81.039062 29.683594 C 80.910156 29.90625 80.796875 30.136719 80.6875 30.359375 C 80.945312 30.582031 81.160156 30.847656 81.296875 31.15625 C 81.304688 31.160156 81.308594 31.160156 81.316406 31.164062 C 81.296875 30.914062 81.296875 30.703125 81.410156 30.492188 C 81.523438 30.765625 81.609375 31.058594 81.6875 31.355469 C 82.605469 31.839844 83.542969 32.277344 84.523438 32.609375 C 87.726562 33.695312 91.113281 34.351562 94.511719 34.972656 C 94.550781 34.972656 94.589844 34.976562 94.632812 34.976562 C 95.835938 35.195312 97.042969 35.410156 98.242188 35.640625 C 98.238281 35.644531 98.234375 35.648438 98.226562 35.652344 L 98.230469 35.652344 C 100.015625 35.992188 101.785156 36.363281 103.519531 36.820312 C 106.796875 37.691406 113.703125 38.003906 115.835938 41.117188 C 115.863281 41.15625 115.890625 41.195312 115.914062 41.234375 C 115.972656 41.332031 116.03125 41.433594 116.082031 41.535156 C 116.15625 41.6875 116.21875 41.847656 116.273438 42.011719 C 116.285156 42.023438 116.296875 42.039062 116.3125 42.054688 C 116.515625 42.6875 116.570312 43.40625 116.523438 44.175781 C 120.210938 46.195312 123.609375 48.941406 127.664062 50.082031 C 132.5 51.445312 136.585938 53.378906 140.710938 56.246094 C 146.21875 60.082031 148.988281 63.863281 154.886719 67.070312 C 156.265625 67.824219 156.613281 68.328125 158.59375 67.433594 C 160.679688 66.488281 161.976562 66.632812 163.570312 65.101562 C 164.328125 64.371094 164.582031 64.609375 165.746094 65 C 166.761719 65.347656 167.058594 66.335938 167.445312 67.359375 C 167.65625 67.910156 167.949219 68.375 168.078125 68.910156 C 167.667969 68.949219 167.359375 68.871094 167.117188 68.722656 C 166.421875 68.296875 166.222656 67.320312 165.515625 66.976562 C 164.390625 66.433594 163.929688 66.933594 163.355469 67.695312 C 163.539062 67.699219 163.726562 67.722656 163.914062 67.769531 C 165.238281 68.074219 166.585938 69.292969 167.152344 70.683594 C 167.328125 71.121094 167.429688 71.574219 167.429688 72.023438 C 167.425781 72.398438 167.183594 72.664062 167.058594 72.996094 C 167.03125 73.066406 167.007812 73.140625 166.996094 73.222656 C 166.914062 73.757812 167.242188 74.484375 167.171875 75.101562 C 167.160156 75.203125 167.144531 75.3125 167.121094 75.425781 C 166.972656 76.195312 166.578125 77.109375 166.023438 76.65625 C 165.90625 76.558594 165.785156 76.402344 165.652344 76.167969 C 165.445312 76.441406 165.25 76.617188 165.0625 76.71875 C 164.152344 77.210938 163.445312 75.925781 162.753906 74.929688 C 161.890625 73.679688 161.929688 74.054688 160.171875 73.9375 C 159.085938 73.863281 157.984375 73.6875 156.902344 73.789062 C 156.996094 73.976562 157.078125 74.179688 157.15625 74.390625 C 157.179688 74.449219 157.203125 74.511719 157.222656 74.574219 C 157.320312 74.832031 157.414062 75.09375 157.527344 75.316406 C 157.675781 75.261719 157.902344 75.191406 158.175781 75.121094 C 159.023438 74.898438 160.34375 74.660156 161.371094 74.789062 C 162.082031 74.882812 162.652344 75.144531 162.832031 75.714844 C 162.886719 75.882812 162.90625 76.078125 162.886719 76.304688 C 162.835938 76.851562 159.644531 77.753906 158.234375 78.25 C 158.019531 78.328125 157.839844 78.394531 157.726562 78.449219 C 156.289062 79.136719 156.292969 78.816406 154.945312 78.023438 C 154.25 77.617188 153.6875 77.480469 153.25 76.910156 C 152.652344 76.132812 152.570312 74.941406 152.007812 74.109375 C 151.765625 73.742188 151.476562 73.394531 151.148438 73.0625 C 150.816406 72.71875 150.445312 72.386719 150.046875 72.074219 C 150.003906 72.039062 149.964844 72.007812 149.921875 71.976562 C 149.882812 71.945312 149.847656 71.917969 149.808594 71.890625 C 149.699219 71.804688 149.582031 71.71875 149.464844 71.636719 C 149.351562 71.554688 149.234375 71.472656 149.113281 71.390625 C 149.035156 71.339844 148.953125 71.285156 148.875 71.234375 C 148.832031 71.203125 148.792969 71.179688 148.753906 71.152344 C 148.714844 71.125 148.671875 71.101562 148.632812 71.074219 C 148.632812 71.074219 148.632812 71.074219 148.628906 71.074219 C 148.589844 71.050781 148.550781 71.023438 148.507812 71 C 148.46875 70.972656 148.425781 70.945312 148.386719 70.921875 C 148.34375 70.894531 148.300781 70.871094 148.261719 70.847656 C 148.085938 70.738281 147.90625 70.636719 147.730469 70.535156 C 147.65625 70.492188 147.578125 70.449219 147.503906 70.40625 C 147.4375 70.367188 147.367188 70.332031 147.296875 70.292969 C 147.28125 70.285156 147.265625 70.277344 147.246094 70.265625 C 147.175781 70.226562 147.105469 70.191406 147.035156 70.152344 C 146.929688 70.097656 146.824219 70.039062 146.714844 69.984375 C 146.640625 69.945312 146.566406 69.90625 146.492188 69.871094 C 146.320312 69.78125 146.144531 69.695312 145.972656 69.613281 C 145.890625 69.574219 145.804688 69.53125 145.71875 69.492188 C 145.714844 69.488281 145.707031 69.488281 145.703125 69.484375 C 145.625 69.445312 145.546875 69.410156 145.464844 69.375 C 145.210938 69.253906 144.960938 69.140625 144.714844 69.03125 C 144.640625 68.996094 144.5625 68.964844 144.488281 68.933594 C 144.46875 68.925781 144.453125 68.917969 144.4375 68.910156 C 144.347656 68.871094 144.261719 68.832031 144.171875 68.796875 C 144.039062 68.738281 143.90625 68.683594 143.777344 68.628906 C 141.101562 67.503906 138.664062 66.125 136.070312 64.835938 C 134.695312 64.152344 133.492188 63.585938 132.273438 62.632812 C 131.707031 62.1875 131.199219 61.53125 130.570312 61.183594 C 128.765625 60.1875 126.160156 60.042969 124.164062 59.507812 C 120.730469 58.582031 117.441406 57.238281 114.027344 56.261719 C 113.457031 56.097656 112.492188 55.902344 111.46875 55.628906 C 112.703125 56.9375 113.804688 58.4375 114.898438 59.960938 C 114.886719 59.957031 114.875 59.953125 114.863281 59.949219 C 114.871094 59.957031 114.878906 59.964844 114.882812 59.972656 C 116.039062 61.582031 117.191406 63.207031 118.503906 64.644531 C 121.722656 68.15625 125.058594 71.765625 129.113281 74.335938 C 128.1875 74.769531 127.179688 75.070312 126.113281 75.277344 C 126.765625 75.574219 127.40625 75.882812 128.015625 76.195312 C 128.226562 76.300781 128.429688 76.410156 128.632812 76.515625 C 128.675781 76.515625 128.71875 76.523438 128.773438 76.535156 C 128.757812 76.542969 128.742188 76.554688 128.726562 76.566406 C 129.496094 76.972656 130.222656 77.378906 130.882812 77.753906 C 135.511719 80.378906 137.65625 85.238281 140.265625 89.617188 C 142.757812 93.792969 146.097656 93.4375 149.851562 95.832031 C 150.082031 95.980469 150.316406 96.136719 150.550781 96.308594 C 150.429688 96.355469 150.316406 96.414062 150.214844 96.476562 C 150.171875 96.5 150.140625 96.527344 150.101562 96.554688 C 150.042969 96.59375 149.984375 96.632812 149.929688 96.675781 C 149.894531 96.703125 149.863281 96.734375 149.828125 96.765625 C 149.78125 96.808594 149.730469 96.851562 149.683594 96.894531 C 149.632812 96.949219 149.582031 97.003906 149.53125 97.0625 C 149.511719 97.085938 149.488281 97.109375 149.464844 97.132812 C 149.394531 97.214844 149.328125 97.296875 149.261719 97.378906 C 149.257812 97.378906 149.257812 97.382812 149.257812 97.382812 C 149.050781 97.636719 148.839844 97.894531 148.570312 98.128906 C 148.566406 98.132812 148.566406 98.132812 148.566406 98.132812 C 148.132812 98.503906 147.691406 98.851562 147.25 99.183594 C 147.15625 99.25 147.0625 99.324219 146.964844 99.390625 C 146.527344 99.710938 146.078125 100.011719 145.625 100.292969 C 145.605469 100.308594 145.585938 100.320312 145.566406 100.332031 C 145.492188 100.378906 145.414062 100.417969 145.335938 100.464844 C 145.164062 100.570312 144.992188 100.675781 144.816406 100.773438 C 147.707031 103.984375 150.246094 107.542969 152.652344 111.035156 C 155.207031 114.742188 156.867188 119.640625 160.851562 122.058594 C 163.222656 123.503906 165.664062 124.625 167.828125 126.132812 C 169.476562 127.277344 170.964844 128.652344 172.140625 130.558594 C 172.320312 130.855469 172.511719 131.179688 172.707031 131.53125 C 172.765625 131.632812 172.824219 131.75 172.878906 131.855469 C 173.019531 132.113281 173.160156 132.371094 173.304688 132.648438 C 173.378906 132.792969 173.449219 132.949219 173.527344 133.101562 C 173.652344 133.359375 173.78125 133.617188 173.90625 133.886719 C 173.988281 134.0625 174.066406 134.246094 174.144531 134.425781 C 174.265625 134.6875 174.382812 134.949219 174.496094 135.226562 C 174.578125 135.417969 174.65625 135.621094 174.734375 135.820312 C 174.84375 136.089844 174.949219 136.359375 175.050781 136.636719 C 175.128906 136.84375 175.203125 137.058594 175.277344 137.269531 C 175.371094 137.542969 175.464844 137.816406 175.550781 138.09375 C 175.621094 138.3125 175.6875 138.535156 175.75 138.757812 C 175.828125 139.027344 175.90625 139.300781 175.976562 139.574219 C 176.035156 139.800781 176.085938 140.023438 176.136719 140.25 C 176.171875 140.417969 176.222656 140.589844 176.253906 140.757812 C 176.292969 140.957031 176.332031 141.15625 176.367188 141.355469 C 176.679688 141.246094 177.015625 140.953125 177.277344 140.917969 C 180.304688 140.46875 181.003906 144.84375 181.003906 146.972656 C 181.003906 149.046875 180.820312 149.925781 181.710938 151.851562 C 182.929688 154.484375 184.707031 157.105469 183.933594 160.140625 M 166.058594 76.917969 C 166.054688 76.917969 166.054688 76.917969 166.054688 76.917969 L 166.054688 76.921875 C 166.054688 76.921875 166.054688 76.921875 166.058594 76.917969 M 166.0625 77.398438 C 166.0625 77.398438 166.058594 77.398438 166.058594 77.394531 C 166.058594 77.398438 166.058594 77.398438 166.058594 77.398438 C 166.058594 77.398438 166.0625 77.398438 166.0625 77.398438 M 128.695312 75.125 C 128.625 75.089844 128.558594 75.054688 128.484375 75.019531 C 128.558594 75.027344 128.625 75.078125 128.695312 75.125 "/>
</g>
</svg>
